<?xml version="1.0" encoding="UTF-8"?>
<svg width="325px" height="250px" viewBox="0 0 325 250" version="1.1" xmlns="http://www.w3.org/2000/svg" xmlns:xlink="http://www.w3.org/1999/xlink">
    <!-- Generator: Sketch 53.2 (72643) - https://sketchapp.com -->
    <title>Slice</title>
    <desc>Created with Sketch.</desc>
    <g id="Page-1" stroke="none" stroke-width="1" fill="none" fill-rule="evenodd">
        <g id="aidata" transform="translate(20.000000, 24.000000)" fill-rule="nonzero">
            <g id="ai-2" transform="translate(93.000000, 51.000000)" fill="#05AC90">
                <path d="M37.3860835,93.8193314 L37.3891203,93.9794215 C37.3891203,95.6476412 36.0294635,97 34.3522418,97 L28.2784846,97 C24.9240411,97 22.2047274,94.2952823 22.2047274,90.9588438 L22.2047274,84.576362 C22.2047274,82.9081424 20.8450706,81.5557835 19.1678488,81.5557835 L16.1309702,81.5557835 C14.5201096,81.5557835 12.9752257,80.9193067 11.8361753,79.7863694 C10.6971248,78.6534329 10.057213,77.1168415 10.057213,75.5146269 L10.057213,68.3196094 L3.35785884,64.9879116 C1.61158599,64.1195796 0.39142945,62.4692485 0.0785676417,60.5524839 C-0.234294166,58.6357191 0.398283259,56.6862153 1.77868195,55.3129995 L10.057213,47.0789032 L10.0663236,41.844241 C12.3166507,14.4173905 24.5977877,0.0575615016 46.4906455,0.000170460054 C68.4017246,-0.0572204867 80.6828616,14.378123 82.9331888,42.0466198 C83.0199862,43.1225311 82.5231018,44.1627716 81.6297058,44.7754928 C80.7363098,45.3882141 79.5821316,45.4803291 78.6019381,45.0171391 C77.6217447,44.5539491 76.9644502,43.6058235 76.8776527,42.5299124 C74.8642022,17.7400266 64.8728717,5.99601829 46.5088668,6.04132696 C28.1266407,6.08965627 18.1353101,17.7732529 16.1309702,42.0889079 L16.1309702,47.0789032 C16.1306262,48.6809865 15.4904887,50.2173279 14.3513593,51.3500008 L6.07282828,59.5840972 L12.7721825,62.9157949 C14.8305209,63.9388291 16.1308921,66.0309424 16.1309702,68.3196094 L16.1309702,75.5146269 L19.1678488,75.5146269 C21.5841396,75.5146269 23.9014655,76.4693422 25.6100412,78.1687474 C27.3186168,79.8681525 28.2784846,82.17304 28.2784846,84.576362 L28.2784846,90.9588438 L31.9439971,90.9588438 L46.278064,55.1710324 C47.2051842,52.89546 49.4093693,51.3908526 51.8775723,51.34873 C54.3457754,51.3066075 56.6005591,52.7351178 57.6056212,54.9777153 L73.9075855,91.8952227 C74.2290208,92.6297476 74.2416872,93.4616423 73.9427621,94.2055111 C73.6438369,94.9493806 73.0581622,95.5434048 72.3162611,95.8552007 C70.7687987,96.5203971 68.9712245,95.8243448 68.2832864,94.2935621 L62.6863191,81.6161948 C62.4574528,81.6701935 62.2230541,81.6975619 61.987837,81.6977506 L42.2390155,81.6977506 L37.3891203,93.8193314 L37.3860835,93.8193314 Z M60.062456,75.6747175 L51.984359,57.3760544 L44.653334,75.6747175 L60.062456,75.6747175 Z M83,54.3705791 L83,93.5172734 C83,95.1854922 81.6403435,96.5378518 79.9631214,96.5378518 L79.9054204,96.5378518 C78.228199,96.5378518 76.8685425,95.1854922 76.8685425,93.5172734 L76.8685425,54.3705791 C76.8685425,52.7023598 78.228199,51.3500008 79.9054204,51.3500008 L79.9631214,51.3500008 C81.6403435,51.3500008 83,52.7023598 83,54.3705791 L83,54.3705791 Z" id="Shape"></path>
            </g>
            <g id="AI" opacity="0.0312248884" transform="translate(0.000000, 96.000000)" fill="#000000">
                <path d="M101.141128,12.694064 L101.321644,12.0243105 L103.783436,12.694064 L106.333668,12.694064 L106.333668,13.3869124 L106.998788,13.569241 L106.333668,16.0440471 L106.333668,18.6100174 L105.641895,18.6100174 L92.7162742,66.6049674 L87.0403408,65.0588213 L99.5492016,18.6100174 L37.4810218,18.6100174 L20.2727062,79.636596 L107,103.290686 L105.460168,109 L18.6674529,85.3288931 L18.6589723,85.3617123 L15.8458415,84.5594667 L13.0230187,83.7888247 L13.0327108,83.7560056 L13,83.7474969 L13.7971749,80.9177579 L14.5616389,78.0807258 L14.5955612,78.0892345 L32.3163464,15.240586 L32.3163464,12.694064 L33.034773,12.694064 L33.2298264,12 L35.6649654,12.694064 L101.141128,12.694064 Z M65.701981,35.1046729 L71.3040122,36.9012168 L62.1643661,65.7066954 L56.5599118,63.9065049 L65.7007694,35.1022418 L65.7007694,35.1046729 L65.701981,35.1046729 Z" id="Shape"></path>
                <path d="M58,58.1710522 L94,58.1710522 L94,64 L58,64 L58,58.1710522 Z M68.3884281,44.5705731 C64.3849778,44.5705731 61.1399376,41.3093804 61.1399376,37.2864842 C61.1379044,35.3565227 61.8999687,33.504681 63.2587088,32.1377999 C64.6182054,30.771202 66.4634509,30.0021998 68.3884281,30 C72.3918784,30 75.6369186,33.2623904 75.6369186,37.2864842 C75.641696,41.3045898 72.3966558,44.5657825 68.3884281,44.5705731 L68.3884281,44.5705731 Z" id="Shape"></path>
                <path d="M60.7642019,71.261771 C55.6226995,71.261771 51.4537828,67.1096184 51.4537828,61.9886301 C51.4537828,56.8676419 55.6226995,52.7130822 60.7642019,52.7130822 C65.9069156,52.7130822 70.0758323,56.8664384 70.0758323,61.9886301 C70.0758323,67.1108219 65.9069156,71.261771 60.7642019,71.261771 Z M91.1481197,73.2138845 C84.9238132,73.2138845 79.8767836,68.1891781 79.8767836,61.9886301 C79.8767836,55.7868787 84.9238132,50.7621722 91.1481197,50.7621722 C97.3724262,50.7621722 102.419456,55.7868787 102.419456,61.9886301 C102.419456,68.1879746 97.3724262,73.2138845 91.1481197,73.2138845 Z M103.88863,1.9521135 C111.19574,1.9521135 117.119672,7.85418787 117.119672,15.1318885 C117.119672,22.409589 111.194529,28.3104599 103.88863,28.3104599 C96.5827302,28.3104599 90.6575877,22.409589 90.6575877,15.1318885 C90.6575877,7.85178082 96.5827302,1.9521135 103.88863,1.9521135 L103.88863,1.9521135 Z M35.772503,6.14642062e-16 C44.1624177,6.14642062e-16 50.9656731,6.77462818 50.9656731,15.1318885 C50.9656731,23.4879452 44.1636288,30.2625734 35.772503,30.2625734 C27.3825884,30.2625734 20.5817553,23.4867417 20.5817553,15.1318885 C20.5805441,6.7758317 27.3825884,0 35.772503,0 L35.772503,6.14642062e-16 Z M0,80.5349119 C0,71.100499 7.67773478,63.4521135 17.1516646,63.4521135 C26.6243833,63.4521135 34.3021181,71.100499 34.3021181,80.5349119 C34.3021181,89.9705284 26.6243833,97.6189139 17.1516646,97.6189139 C7.67773478,97.6201174 0,89.9705284 0,80.5349119 L0,80.5349119 Z M103.88863,123 C93.3331069,123 84.7772592,114.477857 84.7772592,103.965088 C84.7772592,93.4511155 93.334318,84.9277691 103.88863,84.9277691 C114.444152,84.9277691 123,93.4511155 123,103.963885 C123.001211,114.477857 114.445364,123 103.88863,123 L103.88863,123 Z" id="Shape"></path>
                <path d="M84.8201678,110 C83.9123389,105.11008 80.6490289,101.943518 75.0351122,100.497886 L81.9589834,99.251151 C75.2313007,95.4830505 73.9201276,94.1332289 78.0242456,95.2041117 C82.556079,96.3877827 86.0606643,95.6564778 88.5380016,93.0114095 L91.6782367,95.5060933 L87.6033642,98.2336304 L87.6033642,98.2348432 L98.1877968,96.3271438 C98.3669255,96.0336516 93.9118615,100.59127 84.8201678,110 L84.8201678,110 Z M32.9752142,77.4720885 C33.763624,81.4948722 35.8778297,83.9167893 39.3178312,84.7402654 C36.1507877,84.7620954 34.4338333,85.522507 34.1657496,87.0251386 L29.1525841,82.5451377 L32.9752142,77.4720885 L32.9752142,77.4720885 Z M28.4628778,93.7354378 L26.2828698,88.0232547 L38.5342956,87.0239259 C35.297794,88.0365953 35.5585664,89.2978841 39.3178312,90.8114307 C35.3794377,89.7817824 31.7615261,90.7580685 28.4616593,93.7354378 L28.4628778,93.7354378 Z M30.5795206,27.3504103 C30.3479938,30.5921652 28.9478656,33.0941257 26.3791362,34.8550789 C27.2918394,31.7697724 26.5351122,28.9621919 24.1101731,26.4323376 L30.5795206,27.3504103 Z M32.082008,36.4583711 L32.6242682,27.335857 C33.137283,27.9264798 35.0272732,28.9852347 38.296676,30.5084836 C34.9834049,31.1997669 32.9118489,33.1826585 32.082008,36.4583711 Z M9.00121856,65.8670183 C15.1098716,63.9981278 18.8776664,60.7478835 20.3058215,56.1187109 C19.9365971,60.8303524 19.711163,64.0805967 19.6343936,65.8670183 L9,65.8670183 L9.00121856,65.8670183 Z M25.8649029,58.2471358 C24.4672119,62.9866712 25.4128163,66.791155 28.7004975,69.6642254 C25.2190648,69.1827527 22.4212457,67.9166127 20.3058215,65.8658056 L25.86734,58.2471358 L25.8649029,58.2471358 Z M48.5947464,22.5296189 L47.6393935,16.7931802 C47.6747318,17.3086107 49.9436949,17.9113613 54.4487199,18.5990062 C52.4588076,18.5990062 50.5078892,19.9088062 48.5947464,22.5296189 L48.5947464,22.5296189 Z M47.6381749,7 C49.9522248,10.7826537 53.0278762,12.6733742 56.865129,12.6733742 C52.0091581,13.394977 49.4769855,13.9031309 49.2698299,14.2038997 L47.6381749,7 L47.6381749,7 Z M86.2410115,18.6050701 L92.2473053,15.6361902 C92.1364162,16.456028 92.0474611,18.7190712 91.9816588,22.4228944 C90.3329439,20.0446373 88.419801,18.7712207 86.2410115,18.6050701 Z M84.9773624,12.7315876 C88.0018341,12.5193515 90.4413959,11.0531032 92.2972664,8.33284273 C93.7887867,11.3429571 94.8270018,12.8079926 95.4155674,12.7328003 L88.0152383,15.6361902 L84.9773624,12.7328003 L84.9773624,12.7315876 L84.9773624,12.7315876 Z M95.5020854,26.2892298 L99.2650059,25.4123915 C98.7008115,25.530031 97.811261,26.9283637 96.5951358,29.6037514 C96.9485189,28.2054186 96.5829502,27.1017909 95.5020854,26.2892298 Z M102.238298,31.4677907 L100.797957,27.335857 C101.336562,27.4826031 103.069358,27.9313309 106,28.6868914 C103.9321,29.0555758 102.679418,29.982138 102.238298,31.4690035 L102.238298,31.4677907 L102.238298,31.4677907 Z M91.42965,48.6019145 L91.0592071,54.5784832 C89.533567,53.8532421 88.2577322,53.0055105 87.228047,52.0377139 C89.4970101,51.57322 90.8971383,50.4259322 91.42965,48.6019145 L91.42965,48.6019145 Z M97.1739529,49.9893323 C96.9375518,52.1044166 97.5212432,53.8314121 98.925027,55.1678932 C96.1357378,54.8234643 94.5906007,54.4208221 94.2847416,53.9563282 L97.1739529,49.9893323 Z M68.0953996,58.1404114 C68.9971358,59.3616786 69.9329916,59.9741313 70.8944373,59.9741313 C68.9849501,60.756373 67.838283,61.0571418 67.4580915,60.8752252 L68.0953996,58.1404114 Z M71.1649582,65.8063794 C69.6502852,65.8427628 68.6620311,66.4042789 68.2014145,67.4885022 C68.1324261,66.488121 68.0206231,65.4911213 67.8663099,64.5002178 L71.1649582,65.8063794 Z M77.1407879,65.7833367 L82.4098515,64.5026434 L80.7635738,68.4138516 C79.9398256,67.0446255 78.7322303,66.1677872 77.1407879,65.7833367 Z M77.1407879,59.8977263 C78.8370267,59.6090852 79.9678526,58.8741419 80.5332655,57.6965348 C81.7664506,59.2246347 82.3927916,60.3015813 82.4098515,60.9261619 L77.1407879,59.8977263 Z M67.5811663,48.0634412 L67.4568729,44.9429641 L70.3838597,45.5457147 C69.0117585,46.0781241 68.0771212,46.9149407 67.5811663,48.0634412 Z M61.2093038,42.7005381 L63.5599106,44.0139764 C63.4136831,44.3414264 62.8897013,45.047263 61.9879651,46.1290607 C62.3450039,44.9866241 62.0866687,43.8441875 61.2093038,42.7005381 Z M60.3209718,51.3379411 L61.6492048,54.6403349 C60.9278159,54.6403349 59.5240321,54.4014177 57.4366348,53.9235832 C58.819703,53.4978982 59.7811487,52.6368261 60.3209718,51.3379411 Z M65.9409814,53.248066 C65.5949097,54.6524626 65.9348886,55.7330476 66.9645738,56.4922465 C65.435278,56.5540981 64.0924223,56.2278609 62.9360066,55.5062582 L65.9409814,53.248066 Z" id="Shape"></path>
            </g>
            <g id="AI" opacity="0.0312248884" transform="translate(189.000000, 0.000000)" fill="#000000">
                <path d="M51.0705641,6.35060964 L51.1608218,6.01228055 L52.3917179,6.35060964 L53.6668342,6.35060964 L53.6668342,6.70060526 L53.9993942,6.79270936 L53.6668342,8.04286914 L53.6668342,9.33908096 L53.3209476,9.33908096 L46.8581371,33.5839526 L44.0201704,32.8029097 L50.2746008,9.33908096 L19.2405109,9.33908096 L10.6363531,40.1669403 L54,52.1159133 L53.2300842,55 L9.83372643,43.0424305 L9.82948614,43.0590093 L8.42292077,42.6537512 L7.01150936,42.2644578 L7.01635541,42.2478791 L7,42.2435809 L7.39858743,40.8141251 L7.78081945,39.3809852 L7.79778061,39.3852834 L16.6581732,7.63699703 L16.6581732,6.35060964 L17.0173865,6.35060964 L17.1149132,6 L18.3324827,6.35060964 L51.0705641,6.35060964 Z M33.3509905,17.6714327 L36.1520061,18.5789652 L31.582183,33.1301863 L28.7799559,32.2208118 L33.3503847,17.6702046 L33.3503847,17.6714327 L33.3509905,17.6714327 Z" id="Shape"></path>
                <path d="M29,29.0855261 L47,29.0855261 L47,32 L29,32 L29,29.0855261 Z M34.1942141,22.2852866 C32.1924889,22.2852866 30.5699688,20.6546902 30.5699688,18.6432421 C30.5689522,17.6782614 30.9499844,16.7523405 31.6293544,16.0688999 C32.3091027,15.385601 33.2317254,15.0010999 34.1942141,15 C36.1959392,15 37.8184593,16.6311952 37.8184593,18.6432421 C37.820848,20.6522949 36.1983279,22.2828913 34.1942141,22.2852866 L34.1942141,22.2852866 Z" id="Shape"></path>
                <path d="M30.6291099,35.9205675 C28.0374583,35.9205675 25.9360531,33.8276125 25.9360531,31.2463014 C25.9360531,28.6649902 28.0374583,26.5708219 30.6291099,26.5708219 C33.2213721,26.5708219 35.3227773,28.6643836 35.3227773,31.2463014 C35.3227773,33.8282192 33.2213721,35.9205675 30.6291099,35.9205675 Z M45.9445807,36.9045597 C42.8071253,36.9045597 40.2630941,34.3717808 40.2630941,31.2463014 C40.2630941,28.1202153 42.8071253,25.5874364 45.9445807,25.5874364 C49.082036,25.5874364 51.6260672,28.1202153 51.6260672,31.2463014 C51.6260672,34.3711742 49.082036,36.9045597 45.9445807,36.9045597 Z M52.3666263,0.983992172 C56.0498853,0.983992172 59.035932,3.95902153 59.035932,7.62745597 C59.035932,11.2958904 56.0492748,14.2703131 52.3666263,14.2703131 C48.6839778,14.2703131 45.6973206,11.2958904 45.6973206,7.62745597 C45.6973206,3.95780822 48.6839778,0.983992172 52.3666263,0.983992172 L52.3666263,0.983992172 Z M18.0316682,3.09819576e-16 C22.2607308,3.09819576e-16 25.6900141,3.41485323 25.6900141,7.62745597 C25.6900141,11.8394521 22.2613414,15.2543053 18.0316682,15.2543053 C13.8026055,15.2543053 10.3745433,11.8388454 10.3745433,7.62745597 C10.3739328,3.41545988 13.8026055,0 18.0316682,0 L18.0316682,3.09819576e-16 Z M0,40.5948337 C0,35.8392759 3.87007769,31.9839922 8.64555454,31.9839922 C13.4204209,31.9839922 17.2904986,35.8392759 17.2904986,40.5948337 C17.2904986,45.350998 13.4204209,49.2062818 8.64555454,49.2062818 C3.87007769,49.2068885 0,45.350998 0,40.5948337 L0,40.5948337 Z M52.3666263,62 C47.0459563,62 42.7332526,57.7042857 42.7332526,52.4051663 C42.7332526,47.1054403 47.0465668,42.8091194 52.3666263,42.8091194 C57.6872963,42.8091194 62,47.1054403 62,52.4045597 C62.0006105,57.7042857 57.6879068,62 52.3666263,62 L52.3666263,62 Z" id="Shape"></path>
                <path d="M42.3009095,55 C41.8423155,52.5313026 40.1938394,50.9326496 37.3579433,50.2028165 L40.855569,49.5733966 C37.4570488,47.6710546 36.7947037,46.9895913 38.8679179,47.5302311 C41.1571945,48.1278126 42.9275521,47.7586101 44.1789905,46.4232359 L45.7652948,47.6826879 L43.7068541,49.0596969 L43.7068541,49.0603092 L49.0536293,48.0971988 C49.144117,47.949028 46.8936208,50.2499617 42.3009095,55 L42.3009095,55 Z M16.1111907,38.5781417 C16.5094596,40.6090617 17.5774604,41.8317771 19.3151931,42.2475126 C17.7153463,42.2585336 16.8480189,42.6424307 16.7125952,43.4010409 L14.1801714,41.1392928 L16.1111907,38.5781417 L16.1111907,38.5781417 Z M13.831763,46.7887647 L12.7305218,43.9049441 L18.9193864,43.4004286 C17.2844527,43.9116792 17.416183,44.5484463 19.3151931,45.312567 C17.3256953,44.7927445 15.4980905,45.2856268 13.8311475,46.7887647 L13.831763,46.7887647 Z M14.9009949,13.2739936 C14.7840381,14.9106077 14.0767569,16.1737334 12.7791513,17.0627583 C13.2402075,15.5051278 12.8579433,14.0877086 11.632974,12.8105005 L14.9009949,13.2739936 Z M15.6599834,17.8721874 L15.9339087,13.2666463 C16.1930605,13.5648247 17.1477978,14.0993418 18.7993518,14.8683606 C17.1256375,15.217358 16.0791814,16.2184295 15.6599834,17.8721874 Z M4.00061556,32.7192714 C7.08642999,31.7757539 8.989749,30.1348538 9.71118816,27.7977958 C9.52467275,30.1764886 9.4107937,31.8173886 9.37201327,32.7192714 L4,32.7192714 L4.00061556,32.7192714 Z M12.5193839,28.8723404 C11.8133338,31.2651156 12.2910103,33.1858258 13.9517977,34.636308 C12.1931359,34.3932343 10.7798045,33.7540181 9.71118816,32.7186591 L12.5206151,28.8723404 L12.5193839,28.8723404 Z M24.0014698,10.8401959 L23.5188689,7.9441298 C23.5367202,8.20434716 24.6828974,8.5086484 26.9586317,8.85580897 C25.9534183,8.85580897 24.9679028,9.5170672 24.0014698,10.8401959 L24.0014698,10.8401959 Z M23.5182533,3 C24.6872064,4.90968927 26.2408859,5.86422777 28.179292,5.86422777 C25.7262757,6.22853207 24.447137,6.48507577 24.3424914,6.63692025 L23.5182533,3 L23.5182533,3 Z M43.0186553,8.85887035 L46.0527625,7.36001837 C45.9967463,7.77391704 45.9518103,8.91642431 45.9185699,10.7863156 C45.0857139,9.58564212 44.1192809,8.94275218 43.0186553,8.85887035 Z M42.3803171,5.89361702 C43.908143,5.7864687 45.140499,5.04622685 46.0780006,3.67289147 C46.831449,5.19256084 47.3559081,5.93219042 47.6532248,5.8942293 L43.9149142,7.36001837 L42.3803171,5.8942293 L42.3803171,5.89361702 L42.3803171,5.89361702 Z M47.6969297,12.738252 L49.5977865,12.2955763 C49.3127811,12.3549671 48.8634205,13.0609215 48.2490892,14.4116026 C48.4276023,13.7056482 48.2429336,13.148477 47.6969297,12.738252 Z M51.0997588,15.3526711 L50.372164,13.2666463 C50.6442426,13.3407317 51.5195724,13.5672738 53,13.9487219 C51.9553906,14.1348538 51.3225924,14.6026328 51.0997588,15.3532833 L51.0997588,15.3526711 L51.0997588,15.3526711 Z M45.6397201,24.0029083 L45.4525891,27.0202051 C44.681905,26.654064 44.0374111,26.226083 43.5172609,25.7374866 C44.6634381,25.5029848 45.3707193,24.9237716 45.6397201,24.0029083 L45.6397201,24.0029083 Z M48.5414814,24.7033522 C48.4220623,25.7711618 48.7169167,26.643043 49.4260446,27.3177713 C48.0170222,27.1438849 47.236489,26.9406092 47.0819829,26.7061075 L48.5414814,24.7033522 Z M33.8523153,28.8184601 C34.3078315,29.4350222 34.7805834,29.7442216 35.2662622,29.7442216 C34.3016758,30.1391398 33.7224316,30.2909842 33.5303761,30.1991428 L33.8523153,28.8184601 Z M35.402917,32.6886576 C34.6377729,32.7070259 34.1385518,32.9905097 33.9058692,33.5378846 C33.8710194,33.0328378 33.8145415,32.5294981 33.7365895,32.0292362 L35.402917,32.6886576 Z M38.4216351,32.6770243 L41.0833271,32.0304607 L40.2517022,34.0050513 C39.835582,33.3137915 39.2255597,32.8711159 38.4216351,32.6770243 Z M38.4216351,29.7056482 C39.278498,29.5599265 39.84974,29.1888872 40.1353609,28.5943671 C40.7583101,29.365835 41.0747092,29.9095362 41.0833271,30.2248584 L38.4216351,29.7056482 Z M33.5925479,23.7310577 L33.5297606,22.1556712 L35.0083415,22.4599724 C34.3152182,22.7287617 33.8430818,23.1512322 33.5925479,23.7310577 Z M30.373772,21.0235726 L31.5611919,21.6866677 C31.4873244,21.8519822 31.2226326,22.208327 30.7671164,22.7544773 C30.9474762,22.1777131 30.816977,21.600949 30.373772,21.0235726 Z M29.925027,25.3842033 L30.5959901,27.0514312 C30.2315771,27.0514312 29.5224492,26.9308128 28.4679908,26.689576 C29.1666541,26.4746671 29.6523329,26.039951 29.925027,25.3842033 Z M32.7640009,26.3485382 C32.5891812,27.057554 32.7609231,27.603092 33.2810733,27.9863769 C32.5085425,28.0176029 31.8301927,27.8529007 31.246024,27.4885964 L32.7640009,26.3485382 Z" id="Shape"></path>
            </g>
            <g id="AI" opacity="0.0312248884" transform="translate(239.000000, 141.000000)" fill="#000000">
                <path d="M27.4417894,3.18603777 L27.4897988,3.00651621 L28.1445308,3.18603777 L28.8227842,3.18603777 L28.8227842,3.37174973 L28.9996778,3.4206213 L28.8227842,4.08397138 L28.8227842,4.77175725 L28.6388019,4.77175725 L25.2011368,17.636383 L23.69158,17.2219521 L27.0184047,4.77175725 L10.5109101,4.77175725 L5.93423037,21.1293969 L29,27.4696683 L28.5904703,29 L5.50730129,22.6551672 L5.50504582,22.6639641 L4.75687275,22.4489292 L4.006122,22.2423654 L4.00869969,22.2335685 L4,22.2312878 L4.21201459,21.4728011 L4.41532949,20.7123595 L4.42435139,20.7146402 L9.13732617,3.86861067 L9.13732617,3.18603777 L9.32839707,3.18603777 L9.38027298,3 L10.0279163,3.18603777 L27.4417894,3.18603777 Z M18.0164843,9.1930051 L19.5063862,9.67455295 L17.0756293,17.3956091 L15.5850829,16.9130838 L18.0161621,9.19235348 L18.0161621,9.1930051 L18.0164843,9.1930051 Z" id="Shape"></path>
                <path d="M15,15.4570432 L25,15.4570432 L25,17 L15,17 L15,15.4570432 Z M17.8856745,11.8569164 C16.7736049,11.8569164 15.8722049,10.9936595 15.8722049,9.92877523 C15.8716401,9.41790308 16.0833246,8.92770968 16.4607524,8.5658882 C16.8383904,8.20414171 17.3509586,8.0005823 17.8856745,8 C18.997744,8 19.8991441,8.86357392 19.8991441,9.92877523 C19.9004711,10.9923914 18.9990711,11.8556483 17.8856745,11.8569164 L17.8856745,11.8569164 Z" id="Shape"></path>
                <path d="M16.3025908,19.1190117 C14.9231633,19.1190117 13.8046734,18.0050196 13.8046734,16.6310959 C13.8046734,15.2571722 14.9231633,14.1425342 16.3025908,14.1425342 C17.6823432,14.1425342 18.8008331,15.2568493 18.8008331,16.6310959 C18.8008331,18.0053425 17.6823432,19.1190117 16.3025908,19.1190117 Z M24.4543736,19.6427495 C22.7844377,19.6427495 21.4303566,18.2946575 21.4303566,16.6310959 C21.4303566,14.9672114 22.7844377,13.6191194 24.4543736,13.6191194 C26.1243095,13.6191194 27.4783906,14.9672114 27.4783906,16.6310959 C27.4783906,18.2943346 26.1243095,19.6427495 24.4543736,19.6427495 Z M27.8725592,0.523737769 C29.8330035,0.523737769 31.4223509,2.10722114 31.4223509,4.05977495 C31.4223509,6.01232877 29.8326785,7.59548924 27.8725592,7.59548924 C25.9124398,7.59548924 24.3227674,6.01232877 24.3227674,4.05977495 C24.3227674,2.10657534 25.9124398,0.523737769 27.8725592,0.523737769 L27.8725592,0.523737769 Z M9.59750081,1.64903968e-16 C11.8484535,1.64903968e-16 13.6737172,1.81758317 13.6737172,4.05977495 C13.6737172,6.30164384 11.8487785,8.11922701 9.59750081,8.11922701 C7.34654811,8.11922701 5.52193436,6.30132094 5.52193436,4.05977495 C5.52160941,1.81790607 7.34654811,0 9.59750081,0 L9.59750081,1.64903968e-16 Z M0,21.6069276 C0,19.0757436 2.05988006,17.0237378 4.60166613,17.0237378 C7.14312723,17.0237378 9.2030073,19.0757436 9.2030073,21.6069276 C9.2030073,24.1384344 7.14312723,26.1904403 4.60166613,26.1904403 C2.05988006,26.1907632 0,24.1384344 0,21.6069276 L0,21.6069276 Z M27.8725592,33 C25.0405896,33 22.7451183,30.7135714 22.7451183,27.8930724 C22.7451183,25.0722505 25.0409146,22.785499 27.8725592,22.785499 C30.7045287,22.785499 33,25.0722505 33,27.8927495 C33.000325,30.7135714 30.7048536,33 27.8725592,33 L27.8725592,33 Z" id="Shape"></path>
                <path d="M22.3229316,29 C22.079596,27.6707014 21.2048943,26.8098883 19.7001332,26.4169012 L21.5560162,26.0779828 C19.7527198,25.0536448 19.4012713,24.686703 20.5013442,24.9778168 C21.7160624,25.2995914 22.6554358,25.1007901 23.3194643,24.3817424 L24.1611769,25.0599089 L23.068943,25.8013753 L23.068943,25.801705 L25.9060074,25.2831071 C25.9540213,25.2033228 24.7598804,26.4422871 22.3229316,29 L22.3229316,29 Z M8.42634607,20.1574609 C8.63767242,21.2510332 9.20436672,21.9094185 10.126429,22.133276 C9.27753072,22.1392104 8.81731615,22.3459242 8.74545866,22.7544066 L7.40172357,21.5365423 L8.42634607,20.1574609 L8.42634607,20.1574609 Z M7.21685385,24.5785656 L6.6325218,23.0257391 L9.91640914,22.7540769 C9.04889324,23.0293657 9.11879099,23.3722403 10.126429,23.7836899 C9.07077712,23.5037855 8.10102761,23.7691837 7.21652722,24.5785656 L7.21685385,24.5785656 Z M7.7842014,6.53215038 C7.72214266,7.41340414 7.34685058,8.09354873 6.65832517,8.57225447 C6.90296726,7.73353036 6.70013316,6.97030461 6.05014949,6.28257721 L7.7842014,6.53215038 Z M8.18692998,9.00810088 L8.33227808,6.52819414 C8.46978719,6.68875178 8.9763825,6.97656866 9.85271727,7.39065572 C8.964624,7.5785774 8.40936157,8.11761589 8.18692998,9.00810088 Z M2.00032662,17.0026846 C3.63769755,16.4946367 4.64762192,15.6110751 5.03042637,14.3526593 C4.93145901,15.6334939 4.87103339,16.5170554 4.85045602,17.0026846 L2,17.0026846 L2.00032662,17.0026846 Z M6.52048943,14.9312602 C6.14585061,16.2196776 6.39931158,17.2539062 7.28054571,18.0349351 C6.34737821,17.9040493 5.5974473,17.5598559 5.03042637,17.0023549 L6.52114268,14.9312602 L6.52048943,14.9312602 Z M12.6130248,5.22164396 L12.3569508,3.66222374 C12.366423,3.80234078 12.9745986,3.96619529 14.1821311,4.15312791 C13.6487525,4.15312791 13.125826,4.50919003 12.6130248,5.22164396 L12.6130248,5.22164396 Z M12.3566242,1 C12.976885,2.02829422 13.8012864,2.54227649 14.8298284,2.54227649 C13.5282279,2.73844034 12.8495013,2.87657926 12.793975,2.95834167 L12.3566242,1 L12.3566242,1 Z M22.7037763,4.15477634 L24.3137107,3.3477022 C24.2839878,3.57057071 24.2601442,4.18576693 24.2425065,5.19263149 C23.8005829,4.54611499 23.2877817,4.19994348 22.7037763,4.15477634 Z M22.3650662,2.55810147 C23.1757494,2.50040622 23.8296525,2.10181446 24.3271023,1.36232618 C24.7268913,2.18060969 25.0051757,2.57887176 25.1629356,2.55843116 L23.1793422,3.3477022 L22.3650662,2.55843116 L22.3650662,2.55810147 L22.3650662,2.55810147 Z M25.186126,6.24367413 L26.1947439,6.00531032 C26.0435165,6.03728997 25.8050803,6.41741926 25.4791086,7.14470911 C25.5738298,6.76457983 25.4758423,6.46456452 25.186126,6.24367413 Z M26.9917088,7.65143826 L26.605638,6.52819414 C26.7500063,6.56808628 27.214467,6.69007053 28,6.89546562 C27.4457174,6.99569052 27.109947,7.2475715 26.9917088,7.65176795 L26.9917088,7.65143826 L26.9917088,7.65143826 Z M24.0945454,12.3092583 L23.9952514,13.9339566 C23.5863169,13.7368037 23.2443406,13.5063524 22.9683425,13.243262 C23.5765182,13.1169918 23.9518103,12.8051078 24.0945454,12.3092583 L24.0945454,12.3092583 Z M25.6342554,12.6864204 C25.5708902,13.2613948 25.7273435,13.7308693 26.1036155,14.0941846 C25.355971,14.0005534 24.9418105,13.8910973 24.8598276,13.7648271 L25.6342554,12.6864204 Z M17.840004,14.9022478 C18.0817065,15.2342427 18.3325545,15.4007347 18.5902616,15.4007347 C18.0784402,15.6133829 17.7710862,15.6951454 17.6691792,15.6456923 L17.840004,14.9022478 Z M18.6627723,16.9862002 C18.2567775,16.9960909 17.9918846,17.148736 17.8684204,17.4434763 C17.8499286,17.171528 17.8199608,16.900499 17.7785985,16.6311272 L18.6627723,16.9862002 Z M20.2645411,16.9799362 L21.6768674,16.6317866 L21.2355971,17.6950276 C21.0147986,17.3228108 20.6911133,17.084447 20.2645411,16.9799362 Z M20.2645411,15.3799644 C20.719203,15.3014989 21.022311,15.1017085 21.173865,14.7815823 C21.5044094,15.1969881 21.6722947,15.4897503 21.6768674,15.6595391 L20.2645411,15.3799644 Z M17.7021683,12.1628772 L17.6688525,11.3145922 L18.4534057,11.4784467 C18.085626,11.6231794 17.8351046,11.8506635 17.7021683,12.1628772 Z M15.9942464,10.7050006 L16.6243059,11.0620518 C16.5851109,11.1510674 16.4446622,11.3429453 16.2029597,11.6370262 C16.2986608,11.3264609 16.2294163,11.0158956 15.9942464,10.7050006 Z M15.7561368,13.0530325 L16.112158,13.9507706 C15.918796,13.9507706 15.5425241,13.8858223 14.9830155,13.7559255 C15.3537348,13.6402053 15.6114419,13.4061275 15.7561368,13.0530325 Z M17.2625311,13.5722898 C17.1697696,13.9540675 17.260898,14.2478188 17.5368961,14.4542029 C17.1269817,14.471017 16.767041,14.3823311 16.4570739,14.1861673 L17.2625311,13.5722898 Z" id="Shape"></path>
            </g>
        </g>
    </g>
</svg>