<?xml version="1.0" encoding="UTF-8"?>
<svg width="325px" height="250px" viewBox="0 0 325 250" version="1.1" xmlns="http://www.w3.org/2000/svg" xmlns:xlink="http://www.w3.org/1999/xlink">
    <!-- Generator: Sketch 53.2 (72643) - https://sketchapp.com -->
    <title>Slice</title>
    <desc>Created with Sketch.</desc>
    <g id="Page-1" stroke="none" stroke-width="1" fill="none" fill-rule="evenodd">
        <g id="exchang" transform="translate(30.000000, 63.000000)" fill-rule="nonzero">
            <g id="fb0c4e3">
                <path d="M49.5205775,10.5806452 L49.5205775,22.1652577 L38.0441207,22.1652577 L38.0441207,12.0708682 C38.0441207,11.2478432 37.3736183,10.5806452 36.5469388,10.5806452 L32.6732673,10.5806452 L32.6732673,38.186856 C32.6732673,39.0102213 33.3434279,39.6774194 34.170449,39.6774194 L38.0441207,39.6774194 L38.0441207,26.8373449 L49.5205775,26.8373449 L49.5205775,38.186856 C49.5205775,39.0102213 50.1907381,39.6774194 51.0177594,39.6774194 L54.8910891,39.6774194 L54.8910891,12.0708682 C54.8910891,11.2478432 54.2209285,10.5806452 53.3939075,10.5806452 L49.5205775,10.5806452" id="Fill-1" fill="#D7E2F2"></path>
                <path d="M70.5295748,17.1935484 L70.5295748,31.134938 C70.5295748,32.4015867 69.9013419,33.602529 68.8348851,34.2361972 C65.8579714,36.0051019 62.7773559,33.7955191 62.7773559,30.88209 L62.7773559,18.7003166 C62.7773559,17.8681539 62.1213577,17.1935484 61.3118138,17.1935484 L57.5049505,17.1935484 L57.5049505,31.378842 C57.5049505,35.9431798 61.1361897,39.6774194 65.5746312,39.6774194 L67.7322998,39.6774194 C72.1707411,39.6774194 75.8019802,35.9431798 75.8019802,31.378842 L75.8019802,18.7003166 C75.8019802,17.8681539 75.145982,17.1935484 74.3367727,17.1935484 L70.5295748,17.1935484" id="Fill-2" fill="#D7E2F2"></path>
                <path d="M128.22932,39.6774194 L132,39.6774194 L132,20.0169807 C132,19.1879322 131.347325,18.516129 130.542625,18.516129 L126.772277,18.516129 L126.772277,38.1765675 C126.772277,39.005616 127.42462,39.6774194 128.22932,39.6774194" id="Fill-3" fill="#2EA7DF"></path>
                <path d="M129.38599,15.8709677 C130.829641,15.8709677 132,14.6865941 132,13.2256557 C132,11.7647171 130.829641,10.5806452 129.38599,10.5806452 C127.942338,10.5806452 126.772277,11.7647171 126.772277,13.2256557 C126.772277,14.6865941 127.942338,15.8709677 129.38599,15.8709677" id="Fill-4" fill="#357CE1"></path>
                <path d="M94.1605148,30.3480464 C94.1605148,33.0286596 92.0746672,34.8129847 89.5247523,34.8129847 C86.9748378,34.8129847 84.888663,33.0286596 84.888663,30.3480464 L84.888663,26.5229213 C84.888663,23.8423081 86.9748378,22.0579829 89.5247523,22.0579829 C92.0746672,22.0579829 94.1605148,23.8423081 94.1605148,26.5229213 L94.1605148,30.3480464 Z M89.5247523,17.1935484 L89.5247523,17.1935484 C84.1335325,17.1935484 79.7227723,21.2476449 79.7227723,26.9148539 L79.7227723,29.9801799 C79.7227723,35.6473888 84.1335325,39.6774194 89.5247523,39.6774194 C94.9156454,39.6774194 99.3267327,35.6473888 99.3267327,29.9801799 L99.3267327,26.9148539 C99.3267327,21.2476449 94.9156454,17.1935484 89.5247523,17.1935484 L89.5247523,17.1935484 Z" id="Fill-5" fill="#D7E2F2"></path>
                <path d="M118.992525,30.4528233 C118.992525,33.103331 116.90635,34.8676165 114.356436,34.8676165 C111.806848,34.8676165 109.720346,33.103331 109.720346,30.4528233 L109.720346,26.6706575 C109.720346,24.02015 111.806848,22.2558644 114.356436,22.2558644 C116.90635,22.2558644 118.992525,24.02015 118.992525,26.6706575 L118.992525,30.4528233 Z M114.356436,17.4460616 L114.356436,17.4460616 C112.671536,17.4460616 111.082786,17.8376717 109.694183,18.5471253 L109.694183,12.0699197 C109.694183,11.2472664 109.052535,10.5806452 108.26143,10.5806452 L104.554455,10.5806452 L104.554455,30.0890883 C104.554455,35.6929895 108.965543,39.6774194 114.356436,39.6774194 C119.747655,39.6774194 124.158416,35.6929895 124.158416,30.0890883 L124.158416,27.0581885 C124.158416,21.4546271 119.747655,17.4460616 114.356436,17.4460616 L114.356436,17.4460616 Z" id="Fill-6" fill="#2EA7DF"></path>
                <path d="M222.239855,30.540641 C222.239855,33.1657297 220.153794,34.9134073 217.603794,34.9134073 C215.054127,34.9134073 212.967734,33.1657297 212.967734,30.540641 L212.967734,26.794208 C212.967734,24.1691194 215.054127,22.4214419 217.603794,22.4214419 C220.153794,22.4214419 222.239855,24.1691194 222.239855,26.794208 L222.239855,30.540641 Z M217.604126,17.6574297 L217.603794,17.6574297 C215.919217,17.6574297 214.330134,18.0449331 212.941629,18.7474743 L212.941629,12.0554714 C212.941629,11.2409999 212.299917,10.5806452 211.508846,10.5806452 L207.80198,10.5806452 L207.80198,30.1803547 C207.80198,35.7309407 212.21268,39.6774194 217.603794,39.6774194 L217.604126,39.6774194 C222.994908,39.6774194 227.405941,35.7309407 227.405941,30.1803547 L227.405941,27.177969 C227.405941,21.6277233 222.994908,17.6574297 217.604126,17.6574297 L217.604126,17.6574297 Z" id="Fill-7" fill="#D7E2F2"></path>
                <path d="M264,39.6770777 L264,36.3055393 C264,35.5074125 263.343331,34.8613263 262.532134,34.8640594 C261.711559,34.8667928 260.681936,34.8695262 259.811701,34.8695262 C257.594103,34.8695262 257.697934,33.7789353 257.697934,30.9513255 L257.697934,12.0224665 C257.697934,11.2260481 257.041961,10.5806452 256.233192,10.5806452 L252.237624,10.5806452 L252.237624,31.5977534 C252.237624,36.6875192 253.571101,39.6770777 259.154686,39.6770777 C261.312558,39.6770777 262.877658,39.6169449 263.999651,39.6774194 L264,39.6770777" id="Fill-9" fill="#D7E2F2"></path>
                <path d="M164.408117,22.2654206 L153.807906,22.2654206 L153.807906,25.0886564 C153.807906,25.9373991 154.511681,26.62532 155.379637,26.62532 L160.414826,26.62532 L160.414826,29.1214612 C160.414826,30.9630722 159.944247,32.3222187 158.972067,33.2799928 C157.778541,34.4847916 156.126637,35.1212631 154.196221,35.1212631 C152.456475,35.1212631 150.800388,34.5324927 149.767207,33.5467794 C148.330724,32.1705968 148.021188,30.6761831 148.021188,25.1288619 C148.021188,19.6132281 148.330724,18.1256288 149.76651,16.750809 C150.826531,15.739882 152.89359,14.9749576 154.607192,14.9749576 C160.401928,14.9749576 162.348031,16.9852269 163.799852,18.8155941 L163.989826,18.8155941 L163.989826,14.7224814 C163.989826,14.1173562 163.694232,13.551755 163.210757,13.1738926 C160.78327,11.2746992 158.363453,10.5806452 154.196221,10.5806452 C150.830714,10.5806452 147.952867,11.6144006 145.643547,13.65295 C142.454421,16.4676677 142.454769,19.6435525 142.455466,24.9050065 L142.455466,25.3527173 C142.454769,30.6141712 142.454421,33.7897154 145.643547,36.604433 C147.920797,38.615043 150.878469,39.6774194 154.196221,39.6774194 C157.68094,39.6774194 160.748413,38.5308844 163.066796,36.3621785 L163.067493,36.3614971 C165.136295,34.4193726 165.980198,30.7000336 165.980198,26.8328207 L165.980198,23.8017434 C165.980198,22.9533416 165.276422,22.2654206 164.408117,22.2654206" id="Fill-10" fill="#D7E2F2"></path>
                <path d="M180.356436,39.6770777 L180.356436,36.3055393 C180.356436,35.5074125 179.699768,34.8613263 178.88857,34.8640594 C178.067995,34.8667928 177.03837,34.8695262 176.168138,34.8695262 C173.950886,34.8695262 174.054369,33.7789353 174.054369,30.9513255 L174.054369,12.0224665 C174.054369,11.2260481 173.398743,10.5806452 172.589628,10.5806452 L168.594059,10.5806452 L168.594059,31.5977534 C168.594059,36.6875192 169.927536,39.6770777 175.51147,39.6770777 C177.668994,39.6770777 179.234093,39.6169449 180.356088,39.6774194 L180.356436,39.6770777" id="Fill-12" fill="#D7E2F2"></path>
                <path d="M197.408503,30.3481623 C197.408503,33.028552 195.322112,34.8130468 192.772442,34.8130468 C190.222445,34.8130468 188.136382,33.028552 188.136382,30.3481623 L188.136382,26.5228054 C188.136382,23.8424158 190.222445,22.0579209 192.772442,22.0579209 C195.322112,22.0579209 197.408503,23.8424158 197.408503,26.5228054 L197.408503,30.3481623 Z M192.772442,17.1935484 L192.772442,17.1935484 C187.381329,17.1935484 182.970297,21.2474816 182.970297,26.914651 L182.970297,29.9802861 C182.970297,35.6478027 187.381329,39.6774194 192.772442,39.6774194 C198.163557,39.6774194 202.574257,35.6478027 202.574257,29.9802861 L202.574257,26.914651 C202.574257,21.2474816 198.163557,17.1935484 192.772442,17.1935484 L192.772442,17.1935484 Z" id="Fill-13" fill="#D7E2F2"></path>
                <path d="M243.406523,29.5171262 L243.406523,35.1490178 C243.023092,35.2305136 242.599517,35.2953637 242.140855,35.341487 C241.015854,35.4576621 240.007176,35.4788163 238.836971,35.3619477 C238.37894,35.316518 237.955997,35.1882052 237.579523,34.9835982 C237.216005,34.7848868 236.918555,34.5025987 236.671364,34.1197411 C236.436501,33.7569973 236.317331,33.2212046 236.317331,32.527275 C236.317331,31.4463264 236.66852,30.6722881 237.392074,30.1600773 C238.16178,29.6145744 239.327876,29.3374881 240.858434,29.3374881 C241.271262,29.3374881 241.774178,29.3634976 242.368448,29.4151695 C242.757568,29.4491549 243.104014,29.4831405 243.406523,29.5171262 Z M246.065879,19.1390479 C244.592218,17.8479437 242.438307,17.1935484 239.66231,17.1935484 C238.63024,17.1935484 237.5457,17.2760847 236.437766,17.4383831 C235.549207,17.5684299 234.291758,17.7546568 233.419637,17.9752162 C233.065919,18.0646883 233.00112,18.3695179 233.00112,18.7346892 L233.00112,21.6460026 C233.00112,22.1648026 233.00586,22.6367855 233.506562,22.5029242 C234.440641,22.2532343 236.252847,21.8128092 236.7447,21.723684 C237.523256,21.5832335 238.370723,21.512488 239.26339,21.512488 C240.653918,21.512488 241.71412,21.7854128 242.414598,22.321899 C243.072721,22.8275208 243.406523,23.7898668 243.406523,25.1818873 L243.406523,25.350428 C243.159017,25.325459 242.88717,25.3015304 242.590668,25.2796825 C242.036226,25.2387611 241.325631,25.2179536 240.459516,25.2179536 C239.276983,25.2179536 238.131117,25.3649932 237.055112,25.6552576 C235.962667,25.9507238 234.980541,26.4071012 234.135604,27.0129458 C233.276126,27.6309279 232.586711,28.4150232 232.086955,29.3458111 C231.582142,30.2831882 231.326733,31.3811295 231.326733,32.6073839 C231.326733,33.8530584 231.545475,34.9374751 231.976952,35.8297691 C232.411591,36.7300397 233.037155,37.4808428 233.834045,38.0603311 C234.618606,38.6325369 235.581766,39.0507673 236.695703,39.3053122 C237.778665,39.5522276 239.00482,39.6774194 240.34003,39.6774194 C241.312356,39.6774194 248.316832,39.5692205 248.316832,35.9123056 C248.316832,31.674862 248.316832,25.3410647 248.316832,25.3410647 C248.316832,22.5358692 247.559455,20.4492257 246.065879,19.1390479 L246.065879,19.1390479 Z" id="Fill-14" fill="#D7E2F2"></path>
                <path d="M16.990099,12.6183134 C16.990099,6.73153837 14.2151839,1.66918836 12.1045625,0.0206839518 C12.0958658,0.0154988887 11.9430046,-0.0733385275 11.9560497,0.16206334 L11.9530393,0.169322428 C11.7777674,11.5353266 6.1590325,14.6159454 3.0700328,18.7657243 C-4.05858242,28.3421902 2.57097621,38.8415976 9.32195412,40.7821938 C13.0993308,41.8679461 8.44960856,38.8609551 7.85087446,32.5095985 C7.12670724,24.8329395 16.990099,18.9731269 16.990099,12.6183134" id="Fill-15" fill="#D7E2F2"></path>
                <path d="M19.9857104,15.8995515 C19.9424527,15.8684019 19.8807516,15.8471635 19.8381647,15.9214979 C19.7218046,17.386592 18.3040248,20.5206686 16.5069853,23.3984688 C10.412007,33.1599813 13.8853666,37.8656981 15.8383351,40.3930651 C16.9724249,41.8602829 15.8383351,40.3930651 18.672889,38.8936356 C18.8948782,38.7761165 24.2035051,35.6335445 24.7782626,28.4733792 C25.3349121,21.5397568 21.3897416,17.1692526 19.9857104,15.8995515" id="Fill-16" fill="#2EA7DF"></path>
            </g>
            <g id="fb0c4e3" transform="translate(10.000000, 76.000000)" fill="#F0B90B">
                <path d="M11.0236124,24 L5.5382759,29.39 L0,24 L5.5362398,18.562 L11.0236124,24 Z M24.4335701,10.828 L33.8812174,20.108 L39.4194932,14.672 L24.4335701,0 L9.44764713,14.72 L14.9859231,20.156 L24.4335701,10.828 Z M43.3309006,18.562 L37.843528,24 L43.3797678,29.438 L48.9139714,24 L43.3309006,18.562 Z M24.4335701,37.172 L14.9859231,27.844 L9.44764713,33.282 L24.4335701,48 L39.4194932,33.28 L33.8812174,27.844 L24.4335701,37.172 Z M24.4335701,29.392 L29.9698099,23.952 L24.4335701,18.564 L18.8973303,24 L24.4335701,29.39 L24.4335701,29.392 Z M82.6546957,29.952 L82.6546957,29.86 C82.6546957,26.344 80.744805,24.562 77.6437777,23.39 C79.5516323,22.36 81.1744286,20.67 81.1744286,17.718 L81.1744286,17.626 C81.1744286,13.5 77.7863068,10.828 72.3457652,10.828 L59.8907527,10.828 L59.8907527,37.126 L72.6328596,37.126 C78.6923851,37.172 82.6546957,34.734 82.6546957,29.954 L82.6546957,29.952 Z M75.3042633,18.704 C75.3042633,20.672 73.681467,21.468 71.0568943,21.468 L65.6183888,21.468 L65.6183888,15.89 L71.4396869,15.89 C73.9217305,15.89 75.3042633,16.874 75.3042633,18.61 L75.3042633,18.704 Z M76.7845304,29.204 C76.7845304,31.172 75.2106014,32.064 72.6308236,32.064 L65.6183888,32.064 L65.6183888,26.296 L72.4414633,26.296 C75.4488286,26.296 76.7845304,27.376 76.7845304,29.156 L76.7845304,29.204 Z M95.0140099,37.172 L95.0140099,10.828 L89.0970137,10.828 L89.0970137,37.126 L95.0140099,37.126 L95.0140099,37.172 L95.0140099,37.172 Z M126.702314,37.172 L126.702314,10.828 L120.87898,10.828 L120.87898,27.048 L108.32827,10.828 L102.887728,10.828 L102.887728,37.126 L108.711062,37.126 L108.711062,20.438 L121.691396,37.172 L126.700278,37.172 L126.702314,37.172 Z M159.341492,37.172 L147.843461,10.688 L142.404955,10.688 L130.902852,37.172 L136.964414,37.172 L139.39759,31.266 L150.708298,31.266 L153.141473,37.172 L159.345564,37.172 L159.341492,37.172 Z M148.604974,26.156 L141.494805,26.156 L145.074323,17.626 L148.604974,26.156 L148.604974,26.156 Z M187.452314,37.172 L187.452314,10.828 L181.628979,10.828 L181.628979,27.048 L169.078269,10.828 L163.637728,10.828 L163.637728,37.126 L169.461063,37.126 L169.461063,20.438 L182.441397,37.172 L187.450279,37.172 L187.452314,37.172 Z M217.849712,32.906 L214.080834,29.204 C211.979546,31.078 210.118523,32.296 207.017495,32.296 C202.436201,32.296 199.239475,28.546 199.239475,24.046 L199.239475,23.906 C199.239475,19.406 202.483032,15.704 207.017495,15.704 C209.688899,15.704 211.790187,16.828 213.889437,18.656 L217.658315,14.39 C215.178308,12 212.170943,10.312 207.113194,10.312 C198.90555,10.312 193.131084,16.452 193.131084,23.906 L193.131084,24 C193.131084,31.546 198.999212,37.546 206.874967,37.546 C212.028414,37.594 215.08261,35.812 217.849712,32.906 L217.849712,32.906 Z M243,37.172 L243,32.016 L228.4437,32.016 L228.4437,26.484 L241.090109,26.484 L241.090109,21.328 L228.4437,21.328 L228.4437,15.984 L242.808603,15.984 L242.808603,10.828 L222.622402,10.828 L222.622402,37.126 L243,37.126 L243,37.172 L243,37.172 Z" id="Shape"></path>
            </g>
        </g>
    </g>
</svg>