<svg width="512" height="512" xmlns="http://www.w3.org/2000/svg" version="1.1">
 <title>切片</title>

 <g>
  <title>Layer 1</title>
  <g id="页面-1" fill="none" fill-rule="evenodd">
   <g id="logo" fill-rule="nonzero">
    <path d="m277.64574,371.06872c-2.93145,4.44241 -15.30904,15.63502 -17.63537,28.67927c-2.32624,13.04434 -0.15918,14.77455 -0.452,16.51313c-0.19519,1.15908 -0.88536,1.73857 -2.07052,1.73857c0,1.1363 -1.72167,1.1363 -5.16501,0c-5.16492,-1.70449 -27.60966,-12.2546 -10.39983,-35.19827c1.15237,-1.53668 3.26258,-3.56449 6.33052,-6.08353c1.71432,-1.47147 2.96985,-2.54485 3.76657,-3.22033c5.98681,-5.07491 10.45908,-8.63674 13.41671,-10.6854c5.32217,-3.68657 9.25692,-8.25656 16.27826,-8.25656c1.01313,0.97354 0.92118,2.22033 1.35711,3.47623c0,5.37866 -2.49497,8.59449 -5.42642,13.0369z" id="Shape-path" fill="#FFFFFF"/>
   </g>
   <g id="logo" fill="#26B398" fill-rule="nonzero">
    <path d="m487.48487,186.46349c0,0 -9.14789,75.05077 -83.83383,49.34171c-125.87947,-43.33625 -171.63804,-158.20636 -20.97474,-190.78759c0,0 -161.42559,-23.74444 -163.38965,68.09777c-1.96793,91.84211 102.4601,171.10319 215.96685,176.91989c113.50675,5.8167 52.23137,-103.57178 52.23137,-103.57178z" id="Path"/>
    <path d="m321.78138,457.02616c0,0 -61.1737,-86.20967 -150.02695,-61.87903c-88.85711,24.33064 -136.19884,69.63068 -136.19884,69.63068c0,0 20.00487,-165.33205 198.4315,-190.9994c154.5671,-22.23329 137.86237,158.59444 87.7943,183.24775z" id="Path"/>
    <path d="m127.40743,318.36082c0,0 -74.53796,7.19751 -77.22931,-45.13067c-2.69126,-52.32818 48.47537,-69.49842 48.47537,-69.49842l-34.64982,-14.50947c0,0 -61.89575,29.98761 -55.54658,95.00246c6.34522,65.0188 61.39837,74.19453 82.78038,79.51606" id="Path"/>
    <polyline id="Path" points="35.555580139160156,181.0570526123047 154.96298217773438,152.4815216064453 97.10743713378906,225.96299743652344 "/>
   </g>
  </g>
 </g>
</svg>