<?xml version="1.0" encoding="UTF-8"?>
<svg width="238px" height="46px" viewBox="0 0 238 46" version="1.1" xmlns="http://www.w3.org/2000/svg" xmlns:xlink="http://www.w3.org/1999/xlink">
    <title>Slice 1</title>
    <g id="页面-1" stroke="none" stroke-width="1" fill="none" fill-rule="evenodd">
        <g id="logo" transform="translate(1.000000, 0.000000)" fill-rule="nonzero">
            <g transform="translate(24.771930, 3.000000)">
                <path d="M4.58466091,32.7977963 C4.26550761,33.2814466 2.91794901,34.5 2.66468471,35.9201436 C2.41142031,37.3402871 2.64735021,37.5286616 2.61547031,37.7179398 C2.59421701,37.8441253 2.51907551,37.907218 2.39004551,37.907218 C2.39004551,38.0309273 2.20260771,38.0309273 1.82773211,37.907218 C1.26541891,37.7216543 -1.17815679,36.5730495 0.695494106,34.0751518 C0.820954406,33.9078518 1.05068981,33.6870768 1.38470041,33.4128266 C1.57133511,33.252631 1.70802541,33.1357668 1.79477111,33.0622339 C2.44656201,32.5097235 2.93345901,32.1219449 3.25546241,31.8988982 C3.83489101,31.497537 4.26327191,31 5.02769261,31 C5.13798621,31.1059919 5.12797831,31.2417289 5.17543861,31.3784574 C5.17543861,31.96404 4.90381411,32.3141461 4.58466091,32.7977963 Z" id="Shape-path" fill="#FFFFFF"></path>
                <g id="小牛量化" transform="translate(36.228070, 0.000000)" fill="#131111" font-family="PingFangSC-Regular, PingFang SC" font-size="26" font-weight="normal">
                    <g id="编组">
                        <text id="小牛量化">
                            <tspan x="0" y="28">小牛量化</tspan>
                        </text>
                    </g>
                </g>
            </g>
            <g fill="#26B398" id="Path">
                <path d="M52.2019775,15.6996472 C52.2019775,15.6996472 51.2060388,23.8704957 43.0749109,21.0715303 C29.3702927,16.353466 24.3885071,3.84745031 40.7913659,0.300304744 C40.7913659,0.300304744 23.2168145,-2.28477509 23.0029806,7.7141661 C22.7887283,17.7131073 34.1579122,26.342342 46.5155024,26.9756111 C58.8730927,27.6088801 52.2019775,15.6996472 52.2019775,15.6996472 Z"></path>
                <path d="M34.1616823,45.1560669 C34.1616823,45.1560669 27.5016373,35.7703428 17.8280959,38.419239 C8.15413529,41.0681351 3,46 3,46 C3,46 5.17795126,28.0001359 24.6034319,25.2057052 C41.4313021,22.7851478 39.6126394,42.4720417 34.1616823,45.1560669 Z"></path>
                <path d="M13,30.0594393 C13,30.0594393 4.88497823,30.8430408 4.59197459,25.1460222 C4.29897095,19.4490035 9.86953341,17.5796623 9.86953341,17.5796623 L6.09716615,16 C6.09716615,16 -0.641480853,19.2647837 0.0497631997,26.3430057 C0.740570585,33.4216726 6.73426348,34.4206422 9.0621359,35"></path>
                <polyline points="3 15.1110455 16 12 9.70121072 20"></polyline>
            </g>
        </g>
    </g>
</svg>