<?xml version="1.0" encoding="UTF-8"?>
<svg width="297px" height="54px" viewBox="0 0 297 54" version="1.1" xmlns="http://www.w3.org/2000/svg" xmlns:xlink="http://www.w3.org/1999/xlink">
    <title>切片</title>
    <g id="页面-1" stroke="none" stroke-width="1" fill="none" fill-rule="evenodd">
        <g id="logo" transform="translate(30.771930, 7.000000)" fill-rule="nonzero">
            <path d="M160.995927,9.9285714 L160.995927,11.2025426 L151.500751,11.2025426 L151.500751,18.2241974 L158.368977,18.2241974 L158.368977,19.4981685 L151.500751,19.4981685 L151.500751,29.5714286 L148.22807,29.5714286 L148.22807,9.9285714 L160.995927,9.9285714 Z M173.627795,29.2468142 C173.224863,29.0500773 172.884894,28.7721905 172.607878,28.4131455 C172.330862,28.0541006 172.192356,27.6434184 172.192356,27.1810865 C171.829717,27.4466814 171.474638,27.722109 171.127108,28.0073776 C170.779579,28.2926462 170.401836,28.5508596 169.993867,28.7820255 C169.585898,29.0131914 169.132605,29.2025479 168.633977,29.3501006 C168.135348,29.4976533 167.558659,29.5714286 166.903894,29.5714286 C166.299496,29.5714286 165.753027,29.4755207 165.264471,29.2837022 C164.775916,29.0918837 164.362916,28.828752 164.02546,28.4942991 C163.688004,28.1598463 163.426102,27.7614599 163.239746,27.2991281 C163.05339,26.8367963 162.960213,26.3400429 162.960213,25.8088531 C162.960213,25.1596212 163.091164,24.5743375 163.35307,24.0529846 C163.614976,23.5316316 163.975092,23.0668476 164.433427,22.6586184 C164.891763,22.2503892 165.423122,21.8864313 166.027521,21.5667337 C166.631919,21.2470362 167.276601,20.9617719 167.961586,20.7109323 C168.646572,20.4600926 169.351693,20.2363077 170.076971,20.0395708 C170.802249,19.8428338 171.507371,19.6608548 172.192356,19.4936284 L172.192356,18.5492958 C172.192356,17.8607164 172.14199,17.2803511 172.041257,16.8081824 C171.940524,16.3360137 171.78439,15.9548416 171.57285,15.6646546 C171.361311,15.3744676 171.091854,15.1678969 170.764471,15.0449363 C170.437089,14.9219757 170.046754,14.8604963 169.593455,14.8604963 C169.160302,14.8604963 168.762412,14.9441083 168.399773,15.1113347 C168.037134,15.2785611 167.717311,15.502346 167.440295,15.7826962 C167.163279,16.0630463 166.936633,16.3925758 166.76035,16.7712944 C166.584067,17.1500131 166.465708,17.5508586 166.405268,17.9738431 L163.594828,17.9738431 C163.675415,17.3246111 163.904579,16.7442458 164.282328,16.2327297 C164.660077,15.7212136 165.136034,15.290858 165.710213,14.9416499 C166.284392,14.5924418 166.936629,14.3243917 167.666944,14.1374916 C168.397259,13.9505915 169.155264,13.8571429 169.940982,13.8571429 C170.948313,13.8571429 171.794459,13.9530507 172.479444,14.1448692 C173.164429,14.3366877 173.713416,14.6047378 174.126422,14.9490275 C174.539427,15.2933172 174.834067,15.7138361 175.01035,16.2105969 C175.186633,16.7073577 175.274773,17.2557538 175.274773,17.8558015 L175.274773,27.1810865 C175.274773,27.6434184 175.413279,28.0541006 175.690295,28.4131455 C175.967311,28.7721905 176.30728,29.0500773 176.710213,29.2468142 L173.627795,29.2468142 Z M171.799499,20.7321429 C171.375827,20.8620355 170.937719,21.0104821 170.48516,21.177487 C170.032602,21.3444919 169.589679,21.5323695 169.156379,21.7411257 C168.723078,21.9498818 168.309042,22.1748711 167.914257,22.4161003 C167.519472,22.6573296 167.172837,22.9171111 166.874341,23.1954526 C166.575845,23.473794 166.339941,23.7660482 166.16662,24.0722238 C165.9933,24.3783994 165.906641,24.6984873 165.906641,25.0324971 C165.906641,25.385063 165.974043,25.7167483 166.108847,26.0275629 C166.243652,26.3383775 166.421784,26.6120759 166.643249,26.8486661 C166.864713,27.0852564 167.119875,27.2708146 167.408742,27.4053463 C167.697609,27.539878 167.996101,27.6071429 168.304225,27.6071429 C168.631608,27.6071429 168.944543,27.5653923 169.243038,27.4818898 C169.541534,27.3983874 169.830397,27.284733 170.109635,27.1409232 C170.388873,26.9971135 170.668107,26.8324306 170.947345,26.6468696 C171.226583,26.4613086 171.510632,26.2618335 171.799499,26.0484384 L171.799499,20.7321429 Z M184.47528,28.5238095 C184.894739,28.5238095 185.2835,28.4623301 185.641574,28.3393696 C185.999649,28.216409 186.309123,28.0516442 186.570006,27.8450704 C186.830889,27.6384966 187.032943,27.3999566 187.176173,27.1294433 C187.319403,26.85893 187.391016,26.5810432 187.391016,26.2957746 C187.391016,25.8334428 187.270807,25.4301381 187.030386,25.0858484 C186.789964,24.7415588 186.472817,24.4341619 186.078935,24.1636486 C185.685053,23.8931352 185.237466,23.6447586 184.736162,23.4185111 C184.234857,23.1922636 183.723329,22.9586419 183.201563,22.7176392 C182.679797,22.4766364 182.16827,22.2208822 181.666965,21.9503689 C181.16566,21.6798556 180.718074,21.362622 180.324192,20.9986586 C179.930309,20.6346953 179.613162,20.2141763 179.372741,19.7370892 C179.132319,19.2600021 179.01211,18.7017693 179.01211,18.0623742 C179.01211,17.4623265 179.145107,16.9040938 179.411106,16.3876593 C179.677104,15.8712248 180.047962,15.4261141 180.523689,15.0523139 C180.999417,14.6785137 181.564655,14.3858718 182.21942,14.1743796 C182.874186,13.9628874 183.590324,13.8571429 184.367858,13.8571429 C184.889624,13.8571429 185.375575,13.8915713 185.825726,13.9604292 C186.275877,14.0292872 186.718349,14.1620826 187.153154,14.3588196 C187.587959,14.5555565 188.0202,14.8383617 188.449889,15.2072435 C188.879579,15.5761253 189.334838,16.0556644 189.815682,16.6458753 L188.664733,17.6344735 C188.071352,16.699973 187.408924,16.0040264 186.677428,15.546613 C185.945933,15.0891996 185.165853,14.8604963 184.337166,14.8604963 C183.887015,14.8604963 183.477793,14.912139 183.109487,15.0154259 C182.741182,15.1187128 182.426593,15.2613449 182.16571,15.4433266 C181.904827,15.6253083 181.700215,15.8392565 181.55187,16.0851777 C181.403525,16.3310989 181.329353,16.5917715 181.329353,16.8672032 C181.329353,17.3196982 181.459793,17.7131662 181.720676,18.047619 C181.981559,18.3820719 182.32684,18.6845504 182.75653,18.9550637 C183.186219,19.225577 183.674728,19.4739537 184.222071,19.7002012 C184.769414,19.9264487 185.326979,20.1576112 185.894783,20.3936955 C186.462587,20.6297799 187.020152,20.8855341 187.567495,21.1609658 C188.114838,21.4363975 188.603347,21.7536311 189.033037,22.1126761 C189.462726,22.471721 189.808007,22.8873216 190.06889,23.3594903 C190.329773,23.831659 190.460213,24.3825142 190.460213,25.0120724 C190.460213,25.6514675 190.337446,26.2490471 190.091909,26.804829 C189.846372,27.3606109 189.475515,27.8426092 188.979326,28.2508384 C188.483136,28.6590675 187.86163,28.9812195 187.114789,29.2173038 C186.367947,29.4533882 185.48812,29.5714286 184.47528,29.5714286 C184.014898,29.5714286 183.541735,29.5370001 183.055776,29.4681422 C182.569818,29.3992843 182.081309,29.2640296 181.590235,29.0623742 C181.099161,28.8607189 180.608095,28.5779137 180.117021,28.2139504 C179.625947,27.849987 179.145111,27.372907 178.674499,26.7826962 L179.948215,25.6760563 C180.326751,26.1875724 180.689936,26.6228464 181.03778,26.9818913 C181.385624,27.3409363 181.741136,27.6360373 182.104326,27.8672032 C182.467516,28.0983691 182.840931,28.265593 183.224582,28.3688799 C183.608234,28.4721668 184.025129,28.5238095 184.47528,28.5238095 Z M198.264714,8.9464286 L199.137061,8.9464286 L199.137061,14.0952808 L202.566289,14.0952808 L202.566289,15.3824939 L199.137061,15.3824939 L199.137061,26.0500871 C199.137061,26.2769534 199.179676,26.4890208 199.264905,26.6862959 C199.350135,26.8835709 199.465444,27.0561839 199.610836,27.2041402 C199.756228,27.3520965 199.929192,27.4679938 200.129733,27.5518357 C200.330273,27.6356776 200.550865,27.6775979 200.791513,27.6775979 C201.132433,27.6775979 201.443266,27.5937572 201.724023,27.4260735 C202.00478,27.2583897 202.250438,27.0512541 202.461006,26.8046603 L203.22807,27.3077091 C202.806935,28.0080354 202.26047,28.5603971 201.588658,28.9648109 C200.916847,29.3692247 200.084616,29.5714286 199.09194,29.5714286 C198.580561,29.5714286 198.134365,29.485122 197.753338,29.3125064 C197.372311,29.1398908 197.058971,28.8982325 196.813308,28.5875243 C196.567646,28.2768162 196.384656,27.9069311 196.264331,27.4778579 C196.144007,27.0487847 196.083846,26.5728659 196.083846,26.0500871 L196.083846,15.3824939 L193.406641,15.3824939 L193.406641,14.8202629 L196.083846,14.0952808 L196.083846,9.7897751 L198.264714,8.9464286 Z M208.138784,9.9285714 L215.894264,9.9285714 C216.920587,9.9285714 217.862176,10.0446103 218.719059,10.2766914 C219.575942,10.5087726 220.311785,10.8371379 220.926611,11.261797 C221.541437,11.6864562 222.018283,12.195052 222.357163,12.7875997 C222.696043,13.3801473 222.865481,14.03194 222.865481,14.7429972 C222.865481,15.2861659 222.812229,15.7700726 222.705724,16.1947317 C222.599219,16.6193909 222.410417,17.0119478 222.139312,17.3724144 C221.868208,17.7328809 221.507548,18.0735907 221.057321,18.394554 C220.607095,18.7155173 220.038268,19.0438825 219.350825,19.3796596 L219.350825,19.438914 C220.038268,19.5475478 220.657926,19.735185 221.209817,20.0018315 C221.761708,20.268478 222.233712,20.6067188 222.625845,21.0165643 C223.017978,21.4264098 223.320545,21.9053786 223.533556,22.4534852 C223.746566,23.0015918 223.85307,23.6015374 223.85307,24.2533398 C223.85307,24.9940244 223.695735,25.6877885 223.38106,26.3346531 C223.066386,26.9815176 222.616166,27.5444295 222.030387,28.0234055 C221.444608,28.5023816 220.737811,28.880125 219.909975,29.1566473 C219.082139,29.4331695 218.155073,29.5714286 217.12875,29.5714286 L208.138784,29.5714286 L208.138784,9.9285714 Z M211.085213,18.7678571 L215.536201,18.7678571 C216.236242,18.7678571 216.857912,18.6700941 217.401227,18.474565 C217.944543,18.2790359 218.404265,18.0089011 218.780407,17.6641524 C219.156548,17.3194037 219.441262,16.9077697 219.634557,16.429238 C219.827853,15.9507063 219.924499,15.433591 219.924499,14.8778768 C219.924499,14.2809985 219.809568,13.7381562 219.579704,13.2493334 C219.349839,12.7605107 218.991988,12.3411585 218.506138,11.9912644 C218.020288,11.6413702 217.403843,11.3738081 216.656784,11.18857 C215.909725,11.0033319 215.01379,10.9107143 213.968951,10.9107143 L211.085213,10.9107143 L211.085213,18.7678571 Z M210.10307,28.5892857 L213.926922,28.5892857 C214.952967,28.5892857 215.844133,28.4901796 216.600445,28.2919643 C217.356757,28.093749 217.980837,27.8151804 218.472704,27.45625 C218.964571,27.0973196 219.3295,26.6660739 219.5675,26.1625 C219.8055,25.6589261 219.924499,25.1071459 219.924499,24.5071429 C219.924499,23.8321395 219.818722,23.20536 219.607166,22.6267857 C219.395611,22.0482114 219.049193,21.5473235 218.567904,21.1241071 C218.086614,20.7008907 217.457245,20.3660727 216.679778,20.1196429 C215.90231,19.8732131 214.947679,19.75 213.815856,19.75 L210.10307,19.75 L210.10307,28.5892857 Z M231.747339,14.8392857 L231.747339,25.7912114 C231.747339,26.1718015 231.832652,26.5323551 232.003281,26.8728831 C232.17391,27.2134111 232.410349,27.5088647 232.712606,27.7592529 C233.014863,28.0096411 233.363428,28.2074449 233.758313,28.35267 C234.153197,28.4978952 234.579763,28.5705067 235.038023,28.5705067 C235.33053,28.5705067 235.64497,28.5054067 235.981353,28.3752049 C236.317736,28.245003 236.646801,28.06723 236.968558,27.8418806 C237.290316,27.6165312 237.590131,27.3511237 237.868012,27.0456501 C238.145894,26.7401765 238.382333,26.4171805 238.577338,26.0766526 L238.577338,14.8392857 L241.531641,14.8392857 L241.531641,30.2230606 L238.577338,30.2230606 L238.577338,27.3386028 C238.314082,27.7792861 237.985016,28.1949243 237.590132,28.5855299 C237.195248,28.9761355 236.768682,29.3166584 236.310421,29.6071087 C235.852161,29.897559 235.379282,30.1279127 234.891771,30.2981767 C234.404259,30.4684407 233.941131,30.5535714 233.50237,30.5535714 C232.849105,30.5535714 232.23485,30.4283792 231.659587,30.177991 C231.084324,29.9276028 230.582194,29.5870799 230.153185,29.1564122 C229.724175,28.7257445 229.385359,28.2199679 229.136729,27.6390672 C228.888098,27.0581665 228.763784,26.4422208 228.763784,25.7912114 L228.763784,14.8392857 L231.747339,14.8392857 Z M249.388784,29.5714286 L246.442356,29.5714286 L246.442356,6.8843097 L248.536631,6 L249.388784,6 L249.388784,29.5714286 Z M258.22807,29.5714286 L255.281641,29.5714286 L255.281641,6.8843097 L257.375917,6 L258.22807,6 L258.22807,29.5714286 Z" id="FastBull" fill="#0B0B0B"></path>
            <path d="M4.58466091,32.7977963 C4.26550761,33.2814466 2.91794901,34.5 2.66468471,35.9201436 C2.41142031,37.3402871 2.64735021,37.5286616 2.61547031,37.7179398 C2.59421701,37.8441253 2.51907551,37.907218 2.39004551,37.907218 C2.39004551,38.0309273 2.20260771,38.0309273 1.82773211,37.907218 C1.26541891,37.7216543 -1.17815679,36.5730495 0.695494108,34.0751518 C0.820954408,33.9078518 1.05068981,33.6870768 1.38470041,33.4128266 C1.57133511,33.252631 1.70802541,33.1357668 1.79477111,33.0622339 C2.44656201,32.5097235 2.93345901,32.1219449 3.25546241,31.8988982 C3.83489101,31.497537 4.26327191,31 5.02769261,31 C5.13798621,31.1059919 5.12797831,31.2417289 5.17543861,31.3784574 C5.17543861,31.96404 4.90381411,32.3141461 4.58466091,32.7977963 Z" id="Shape-path" fill="#FFFFFF"></path>
            <g id="小牛量化" transform="translate(36.228070, -0.000000)" fill="#131111" font-family="PingFangSC-Regular, PingFang SC" font-size="26" font-weight="normal">
                <text>
                    <tspan x="0" y="28">小牛量化</tspan>
                </text>
            </g>
        </g>
        <g id="logo" transform="translate(6.000000, 4.000000)" fill="#26B398" fill-rule="nonzero">
            <path d="M52.2019775,15.6996472 C52.2019775,15.6996472 51.2060388,23.8704957 43.0749109,21.0715303 C29.3702927,16.353466 24.3885071,3.84745031 40.7913659,0.300304745 C40.7913659,0.300304745 23.2168145,-2.28477509 23.0029806,7.7141661 C22.7887283,17.7131073 34.1579122,26.342342 46.5155024,26.9756111 C58.8730927,27.6088801 52.2019775,15.6996472 52.2019775,15.6996472 Z" id="Path"></path>
            <path d="M34.1616823,45.1560669 C34.1616823,45.1560669 27.5016373,35.7703428 17.8280959,38.419239 C8.15413529,41.0681351 3,46 3,46 C3,46 5.17795126,28.0001359 24.6034319,25.2057052 C41.4313021,22.7851478 39.6126394,42.4720417 34.1616823,45.1560669 Z" id="Path"></path>
            <path d="M13,30.0594393 C13,30.0594393 4.88497823,30.8430408 4.59197459,25.1460222 C4.29897095,19.4490035 9.86953341,17.5796623 9.86953341,17.5796623 L6.09716615,16 C6.09716615,16 -0.641480853,19.2647837 0.0497631996,26.3430057 C0.740570585,33.4216726 6.73426348,34.4206422 9.0621359,35" id="Path"></path>
            <polyline id="Path" points="3 15.1110455 16 12 9.70121072 20"></polyline>
        </g>
    </g>
</svg>
