<?xml version="1.0" encoding="UTF-8"?>
<svg width="188px" height="38px" viewBox="0 0 188 38" version="1.1" xmlns="http://www.w3.org/2000/svg" xmlns:xlink="http://www.w3.org/1999/xlink">
    <!-- Generator: Sketch 53.2 (72643) - https://sketchapp.com -->
    <title>Slice</title>
    <desc>Created with Sketch.</desc>
    <g id="Page-1" stroke="none" stroke-width="1" fill="none" fill-rule="evenodd">
        <g id="exchang" transform="translate(4.000000, 1.500000)" fill="#777A8C" fill-rule="nonzero">
            <g id="fb0c4e3">
                <path d="M7.93881551,17.5 L3.9884703,21.4302083 L0,17.5 L3.98700397,13.5347917 L7.93881551,17.5 Z M17.5961925,7.89541667 L24.4000537,14.6620833 L28.3885239,10.6983333 L17.5961925,0 L6.8038611,10.7333333 L10.7923315,14.6970833 L17.5961925,7.89541667 Z M31.2053811,13.5347917 L27.2535695,17.5 L31.2405735,21.4652083 L35.2261111,17.5 L31.2053811,13.5347917 Z M17.5961925,27.1045833 L10.7923315,20.3029167 L6.8038611,24.268125 L17.5961925,35 L28.3885239,24.2666667 L24.4000537,20.3029167 L17.5961925,27.1045833 Z M17.5961925,21.4316667 L21.5831964,17.465 L17.5961925,13.53625 L13.6091885,17.5 L17.5961925,21.4302083 L17.5961925,21.4316667 Z M59.5249866,21.84 L59.5249866,21.7729167 C59.5249866,19.2091667 58.1495509,17.9097917 55.9163008,17.0552083 C57.2902702,16.3041667 58.4589506,15.071875 58.4589506,12.919375 L58.4589506,12.8522917 C58.4589506,9.84375 56.0189452,7.89541667 52.1008597,7.89541667 L43.1312005,7.89541667 L43.1312005,27.0710417 L52.3076149,27.0710417 C56.6714708,27.1045833 59.5249866,25.326875 59.5249866,21.8414583 L59.5249866,21.84 Z M54.2314653,13.6383333 C54.2314653,15.0733333 53.0627849,15.65375 51.1726605,15.65375 L47.2560413,15.65375 L47.2560413,11.5864583 L51.4483342,11.5864583 C53.2358141,11.5864583 54.2314653,12.3039583 54.2314653,13.5697917 L54.2314653,13.6383333 Z M55.2975013,21.2945833 C55.2975013,22.7295833 54.1640134,23.38 52.3061487,23.38 L47.2560413,23.38 L47.2560413,19.1741667 L52.1697781,19.1741667 C54.3355762,19.1741667 55.2975013,19.9616667 55.2975013,21.2595833 L55.2975013,21.2945833 Z M68.4257273,27.1045833 L68.4257273,7.89541667 L64.164516,7.89541667 L64.164516,27.0710417 L68.4257273,27.0710417 L68.4257273,27.1045833 L68.4257273,27.1045833 Z M91.2465224,27.1045833 L91.2465224,7.89541667 L87.0527634,7.89541667 L87.0527634,19.7225 L78.0141862,7.89541667 L74.0961004,7.89541667 L74.0961004,27.0710417 L78.2898595,27.0710417 L78.2898595,14.9027083 L87.6378366,27.1045833 L91.2450562,27.1045833 L91.2465224,27.1045833 Z M114.752103,27.1045833 L106.471628,7.79333333 L102.555009,7.79333333 L94.2716012,27.1045833 L98.6369237,27.1045833 L100.389211,22.798125 L108.534783,22.798125 L110.287069,27.1045833 L114.755036,27.1045833 L114.752103,27.1045833 Z M107.020043,19.0720833 L101.899551,19.0720833 L104.477393,12.8522917 L107.020043,19.0720833 L107.020043,19.0720833 Z M134.996522,27.1045833 L134.996522,7.89541667 L130.802763,7.89541667 L130.802763,19.7225 L121.764185,7.89541667 L117.8461,7.89541667 L117.8461,27.0710417 L122.03986,27.0710417 L122.03986,14.9027083 L131.387837,27.1045833 L134.995057,27.1045833 L134.996522,27.1045833 Z M156.887653,23.9939583 L154.17344,21.2945833 C152.660167,22.6610417 151.319924,23.5491667 149.086673,23.5491667 C145.787388,23.5491667 143.485219,20.8147917 143.485219,17.5335417 L143.485219,17.4314583 C143.485219,14.1502083 145.821114,11.4508333 149.086673,11.4508333 C151.010524,11.4508333 152.523797,12.2704167 154.035603,13.6033333 L156.749815,10.4927083 C154.963802,8.75 152.798004,7.51916667 149.155592,7.51916667 C143.244738,7.51916667 139.086172,11.99625 139.086172,17.4314583 L139.086172,17.5 C139.086172,23.0022917 143.31219,27.3772917 148.98403,27.3772917 C152.69536,27.4122917 154.894884,26.1129167 156.887653,23.9939583 L156.887653,23.9939583 Z M175,27.1045833 L175,23.345 L164.517068,23.345 L164.517068,19.31125 L173.624564,19.31125 L173.624564,15.5516667 L164.517068,15.5516667 L164.517068,11.655 L174.862163,11.655 L174.862163,7.89541667 L160.324775,7.89541667 L160.324775,27.0710417 L175,27.0710417 L175,27.1045833 L175,27.1045833 Z" id="Shape"></path>
            </g>
        </g>
    </g>
</svg>