<?xml version="1.0" encoding="UTF-8"?>
<svg width="56px" height="57px" viewBox="0 0 56 57" version="1.1" xmlns="http://www.w3.org/2000/svg" xmlns:xlink="http://www.w3.org/1999/xlink">
    <!-- Generator: Sketch 53.2 (72643) - https://sketchapp.com -->
    <title>Slice</title>
    <desc>Created with Sketch.</desc>
    <g id="Page-1" stroke="none" stroke-width="1" fill="none" fill-rule="evenodd">
        <g id="business" transform="translate(2.000000, 2.000000)" opacity="0.4" stroke="#43454F" stroke-width="2">
            <circle id="Oval" cx="26" cy="26" r="26"></circle>
        </g>
        <g id="twitter" transform="translate(16.000000, 18.000000)" fill="#000000" fill-rule="nonzero">
            <path d="M24.0107317,2.41723161 C23.1275317,2.81886571 22.1785717,3.09006717 21.1825717,3.21213243 C22.1992117,2.58704015 22.9796917,1.59772086 23.3473717,0.418905086 C22.3960117,0.9977307 21.3419317,1.41757615 20.2206517,1.64398753 C19.3225717,0.662543419 18.0428917,0.0497560976 16.6264117,0.0497560976 C13.9072117,0.0497560976 11.7025717,2.3104245 11.7025717,5.09872986 C11.7025717,5.49445758 11.7462517,5.87984912 11.8302517,6.24949031 C7.73825171,6.03882929 4.10993171,4.02869 1.68161171,0.974105165 C1.25777171,1.71978612 1.01489171,2.58704015 1.01489171,3.51237361 C1.01489171,5.26410861 1.88417171,6.80961238 3.20513171,7.7147657 C2.39777171,7.68867917 1.63889171,7.46128339 0.975051707,7.08327483 C0.974571707,7.10443937 0.974571707,7.12560391 0.974571707,7.14676845 C0.974571707,9.59299575 2.67185171,11.6336514 4.92449171,12.0977947 C4.51121171,12.2129692 4.07633171,12.2749862 3.62705171,12.2749862 C3.30977171,12.2749862 3.00113171,12.2434855 2.70065171,12.1844216 C3.32705171,14.1901312 5.14577171,15.6499924 7.30049171,15.6908448 C5.61521171,17.0448833 3.49217171,17.8520891 1.18529171,17.8520891 C0.787851707,17.8520891 0.395691707,17.8279714 0.0107317073,17.7812125 C2.18993171,19.2140028 4.77809171,20.0497561 7.55873171,20.0497561 C16.6153717,20.0497561 21.5680117,12.356199 21.5680117,5.68395406 C21.5680117,5.46492566 21.5632117,5.24737386 21.5536117,5.03080645 C22.5160117,4.3190872 23.3507317,3.42968424 24.0107317,2.41723161 Z" id="Path"></path>
        </g>
    </g>
</svg>